<?xml version="1.0"?>
<svg xmlns="http://www.w3.org/2000/svg" viewBox="0 0 32 32">
    <path style="text-indent:0;text-align:start;line-height:normal;text-transform:none;block-progression:tb;-inkscape-font-specification:Sans" d="M 14 3 C 14.022 3.001 13.907 3.43 14 4.125 C 14.044 4.293 14.06425 4.5005 14.15625 4.6875 C 14.22625 4.8875 14.34575 5.052 14.46875 5.25 C 14.73175 5.625 15.06975 5.96625 15.34375 6.28125 C 15.62075 6.59725 15.8285 6.91875 15.9375 7.21875 C 15.9785 7.37875 16.01825 7.50325 16.03125 7.65625 C 16.042262 7.7833088 16.063677 7.8912081 16.0625 8 C 16.041451 7.9998333 16.021088 8 16 8 C 15.536843 8 15.098217 8.0488261 14.65625 8.125 C 14.564362 8.0070714 14.484613 7.8589523 14.375 7.71875 C 14.251 7.54875 14.07225 7.41 13.90625 7.25 C 13.74225 7.091 13.5195 6.98175 13.3125 6.84375 C 12.8675 6.58375 12.36425 6.41975 11.90625 6.34375 C 11.44425 6.26575 11.0485 6.227 10.6875 6.125 C 10.5155 6.064 10.3325 6.0285 10.1875 5.9375 C 10.0265 5.8665 9.91025 5.74825 9.78125 5.65625 C 9.55525 5.44025 9.38025 5.2255 9.28125 5.0625 C 9.17225 4.9025 9.09375 4.8125 9.09375 4.8125 C 9.11475 4.8045 9.17325 5.24075 9.53125 5.84375 C 9.63725 5.98075 9.74925 6.14425 9.90625 6.28125 C 10.04825 6.43725 10.21625 6.58475 10.40625 6.71875 C 10.79425 6.96275 11.25 7.1285 11.625 7.3125 C 12.003 7.4955 12.283 7.7035 12.5 7.9375 C 12.6 8.0695 12.70925 8.1755 12.78125 8.3125 C 12.84367 8.4319904 12.897314 8.518688 12.9375 8.625 C 12.553891 8.7860007 12.163256 8.9711045 11.8125 9.1875 C 11.679376 9.110717 11.533979 9.0288472 11.375 8.9375 C 11.196 8.8265 10.99525 8.7735 10.78125 8.6875 C 10.56925 8.6025 10.3065 8.55 10.0625 8.5 C 9.5515 8.427 9.04675 8.49175 8.59375 8.59375 C 8.13675 8.69475 7.71675 8.833 7.34375 8.875 C 7.16075 8.883 6.9815 8.87375 6.8125 8.84375 C 6.6365 8.83775 6.49775 8.786 6.34375 8.75 C 6.05375 8.635 5.80925 8.488 5.65625 8.375 C 5.49425 8.268 5.40625 8.21875 5.40625 8.21875 C 5.42325 8.20375 5.6295 8.60625 6.1875 9.03125 C 6.3375 9.11825 6.4915 9.2455 6.6875 9.3125 C 6.8785 9.4045 7.0865 9.447 7.3125 9.5 C 7.7625 9.579 8.24025 9.56475 8.65625 9.59375 C 9.07525 9.62075 9.43075 9.70875 9.71875 9.84375 C 9.86175 9.92775 10.007 9.9635 10.125 10.0625 C 10.227928 10.150213 10.328841 10.228611 10.40625 10.3125 C 10.071265 10.641826 9.7733351 10.991576 9.5 11.375 C 9.3460194 11.356088 9.1842805 11.334756 9 11.3125 C 8.792 11.2805 8.57375 11.3075 8.34375 11.3125 C 8.11575 11.3165 7.869 11.3875 7.625 11.4375 C 7.127 11.5715 6.65825 11.82275 6.28125 12.09375 C 5.90025 12.36575 5.577 12.6285 5.25 12.8125 C 5.086 12.8915 4.917 12.99225 4.75 13.03125 C 4.586 13.09525 4.43725 13.098 4.28125 13.125 C 3.96925 13.133 3.686 13.1075 3.5 13.0625 C 3.31 13.0275 3.1875 13 3.1875 13 C 3.1965 12.98 3.571 13.2655 4.25 13.4375 C 4.422 13.4595 4.6055 13.515 4.8125 13.5 C 5.0235 13.51 5.23975 13.44625 5.46875 13.40625 C 5.91475 13.30325 6.356 13.10475 6.75 12.96875 C 7.146 12.82875 7.4935 12.77025 7.8125 12.78125 C 7.9765 12.80325 8.13425 12.79875 8.28125 12.84375 C 8.40005 12.880875 8.4949944 12.898384 8.59375 12.9375 C 8.4303189 13.328348 8.3188733 13.737221 8.21875 14.15625 C 8.07667 14.194474 7.917851 14.235548 7.75 14.28125 C 7.546 14.32925 7.36825 14.44125 7.15625 14.53125 C 6.94725 14.62025 6.707 14.76925 6.5 14.90625 C 6.087 15.21525 5.78025 15.607 5.53125 16 C 5.27925 16.395 5.07875 16.7695 4.84375 17.0625 C 4.72075 17.1975 4.60975 17.3395 4.46875 17.4375 C 4.33975 17.5585 4.16625 17.6045 4.03125 17.6875 C 3.74525 17.8115 3.5015 17.9095 3.3125 17.9375 C 3.1225 17.9765 3 18 3 18 C 3.001 17.978 3.43 18.093 4.125 18 C 4.293 17.956 4.5005 17.93575 4.6875 17.84375 C 4.8875 17.77375 5.052 17.65425 5.25 17.53125 C 5.625 17.26825 5.96625 16.93025 6.28125 16.65625 C 6.59725 16.37925 6.91875 16.1715 7.21875 16.0625 C 7.37875 16.0215 7.50325 15.98175 7.65625 15.96875 C 7.7833088 15.957738 7.8912081 15.936323 8 15.9375 C 7.9998347 15.958616 8 15.978846 8 16 C 8 16.418474 8.0313105 16.81732 8.09375 17.21875 C 7.9724048 17.312046 7.8643273 17.419875 7.71875 17.53125 C 7.54775 17.65425 7.411 17.836 7.25 18 C 7.09 18.163 6.9525 18.38775 6.8125 18.59375 C 6.5495 19.03675 6.3925 19.542 6.3125 20 C 6.2305 20.461 6.19875 20.89 6.09375 21.25 C 6.03075 21.421 5.968 21.57475 5.875 21.71875 C 5.802 21.87975 5.68675 21.997 5.59375 22.125 C 5.37575 22.348 5.164 22.527 5 22.625 C 4.84 22.733 4.75 22.8125 4.75 22.8125 C 4.742 22.7915 5.17525 22.727 5.78125 22.375 C 5.91925 22.27 6.112 22.18725 6.25 22.03125 C 6.408 21.89125 6.52025 21.689 6.65625 21.5 C 6.90225 21.114 7.09425 20.6855 7.28125 20.3125 C 7.46725 19.9355 7.67025 19.62125 7.90625 19.40625 C 8.03925 19.30725 8.14425 19.22625 8.28125 19.15625 C 8.4016322 19.094721 8.4872554 19.039294 8.59375 19 C 8.8681145 19.670432 9.2507087 20.309314 9.6875 20.875 L 5.28125 25.28125 L 6.71875 26.71875 L 11.125 22.3125 C 11.206211 22.375206 11.291371 22.440382 11.375 22.5 C 11.356088 22.653981 11.334756 22.81572 11.3125 23 C 11.2805 23.208 11.3075 23.42625 11.3125 23.65625 C 11.3165 23.88425 11.3875 24.131 11.4375 24.375 C 11.5715 24.873 11.82275 25.34175 12.09375 25.71875 C 12.36575 26.09975 12.6285 26.423 12.8125 26.75 C 12.8915 26.914 12.99325 27.083 13.03125 27.25 C 13.09525 27.414 13.098 27.594 13.125 27.75 C 13.133 28.062 13.1075 28.314 13.0625 28.5 C 13.0275 28.69 13 28.8125 13 28.8125 C 12.98 28.8035 13.2655 28.43 13.4375 27.75 C 13.4595 27.578 13.515 27.3945 13.5 27.1875 C 13.51 26.9765 13.44625 26.76025 13.40625 26.53125 C 13.30325 26.08525 13.10475 25.644 12.96875 25.25 C 12.82875 24.854 12.77025 24.5065 12.78125 24.1875 C 12.80425 24.0235 12.79875 23.86575 12.84375 23.71875 C 12.880875 23.59995 12.898384 23.505006 12.9375 23.40625 C 13.328348 23.569681 13.737221 23.681127 14.15625 23.78125 C 14.194474 23.922756 14.235548 24.082149 14.28125 24.25 C 14.32925 24.454 14.44125 24.63175 14.53125 24.84375 C 14.62025 25.05275 14.76925 25.293 14.90625 25.5 C 15.21525 25.913 15.607 26.21975 16 26.46875 C 16.395 26.72075 16.7695 26.92125 17.0625 27.15625 C 17.1975 27.27925 17.3395 27.39025 17.4375 27.53125 C 17.5585 27.66025 17.6045 27.83375 17.6875 27.96875 C 17.8115 28.25475 17.9095 28.4985 17.9375 28.6875 C 17.9765 28.8775 18 29 18 29 C 17.978 28.999 18.093 28.57 18 27.875 C 17.956 27.707 17.93575 27.4995 17.84375 27.3125 C 17.77375 27.1125 17.65425 26.948 17.53125 26.75 C 17.26825 26.375 16.93025 26.03375 16.65625 25.71875 C 16.37925 25.40275 16.1715 25.08125 16.0625 24.78125 C 16.0215 24.62125 15.98175 24.49675 15.96875 24.34375 C 15.957738 24.216691 15.936323 24.108792 15.9375 24 C 15.958616 24.000165 15.978846 24 16 24 C 16.418474 24 16.81732 23.968689 17.21875 23.90625 C 17.312046 24.027595 17.419875 24.135673 17.53125 24.28125 C 17.65425 24.45225 17.836 24.589 18 24.75 C 18.163 24.91 18.38775 25.0475 18.59375 25.1875 C 19.03675 25.4505 19.542 25.6075 20 25.6875 C 20.461 25.7695 20.89 25.80125 21.25 25.90625 C 21.421 25.96925 21.57475 26.032 21.71875 26.125 C 21.87975 26.198 21.997 26.31325 22.125 26.40625 C 22.348 26.62425 22.527 26.836 22.625 27 C 22.733 27.16 22.8125 27.25 22.8125 27.25 C 22.7915 27.258 22.727 26.82475 22.375 26.21875 C 22.27 26.08075 22.18725 25.888 22.03125 25.75 C 21.89125 25.592 21.689 25.47975 21.5 25.34375 C 21.114 25.09775 20.6855 24.90575 20.3125 24.71875 C 19.9355 24.53275 19.62125 24.32975 19.40625 24.09375 C 19.30725 23.96075 19.22625 23.85575 19.15625 23.71875 C 19.094721 23.598368 19.039294 23.512745 19 23.40625 C 19.407225 23.239599 19.816794 23.041203 20.1875 22.8125 C 20.320624 22.889283 20.466021 22.971153 20.625 23.0625 C 20.804 23.1735 21.00475 23.2265 21.21875 23.3125 C 21.43075 23.3975 21.6935 23.45 21.9375 23.5 C 22.4485 23.573 22.95325 23.50825 23.40625 23.40625 C 23.86325 23.30425 24.28325 23.166 24.65625 23.125 C 24.83925 23.117 25.0185 23.12625 25.1875 23.15625 C 25.3645 23.16225 25.50225 23.214 25.65625 23.25 C 25.94725 23.365 26.19075 23.511 26.34375 23.625 C 26.50575 23.732 26.59375 23.78125 26.59375 23.78125 C 26.57675 23.79625 26.3705 23.39275 25.8125 22.96875 C 25.6625 22.88175 25.5095 22.7545 25.3125 22.6875 C 25.1215 22.5955 24.9135 22.553 24.6875 22.5 C 24.2375 22.421 23.75975 22.43525 23.34375 22.40625 C 22.92475 22.37925 22.57025 22.29125 22.28125 22.15625 C 22.13825 22.07225 21.993 22.0365 21.875 21.9375 C 21.772072 21.849787 21.671159 21.771389 21.59375 21.6875 C 21.928735 21.358174 22.226665 21.008424 22.5 20.625 C 22.653981 20.643912 22.81572 20.665244 23 20.6875 C 23.208 20.7195 23.42625 20.6925 23.65625 20.6875 C 23.88425 20.6835 24.131 20.6125 24.375 20.5625 C 24.873 20.4285 25.34175 20.17725 25.71875 19.90625 C 26.09975 19.63425 26.423 19.3715 26.75 19.1875 C 26.914 19.1085 27.083 19.00775 27.25 18.96875 C 27.414 18.90475 27.594 18.902 27.75 18.875 C 28.062 18.867 28.314 18.8925 28.5 18.9375 C 28.69 18.9725 28.8125 19 28.8125 19 C 28.8035 19.02 28.43 18.7345 27.75 18.5625 C 27.578 18.5405 27.3945 18.485 27.1875 18.5 C 26.9765 18.49 26.76025 18.55375 26.53125 18.59375 C 26.08525 18.69675 25.644 18.89525 25.25 19.03125 C 24.854 19.17125 24.5065 19.22975 24.1875 19.21875 C 24.0235 19.19675 23.86575 19.20125 23.71875 19.15625 C 23.59995 19.119125 23.505006 19.101616 23.40625 19.0625 C 23.569681 18.671652 23.681127 18.262779 23.78125 17.84375 C 23.92333 17.805526 24.082149 17.764452 24.25 17.71875 C 24.454 17.67075 24.63175 17.55875 24.84375 17.46875 C 25.05275 17.37975 25.293 17.23075 25.5 17.09375 C 25.913 16.78475 26.21975 16.393 26.46875 16 C 26.72075 15.605 26.92125 15.2305 27.15625 14.9375 C 27.27925 14.8025 27.39025 14.6605 27.53125 14.5625 C 27.66025 14.4415 27.83375 14.3955 27.96875 14.3125 C 28.25475 14.1885 28.4985 14.0905 28.6875 14.0625 C 28.8775 14.0235 29 14 29 14 C 28.999 14.022 28.57 13.907 27.875 14 C 27.707 14.044 27.4995 14.06425 27.3125 14.15625 C 27.1125 14.22625 26.948 14.34575 26.75 14.46875 C 26.375 14.73175 26.03375 15.06975 25.71875 15.34375 C 25.40275 15.62075 25.08125 15.8285 24.78125 15.9375 C 24.62125 15.9785 24.49675 16.01825 24.34375 16.03125 C 24.216691 16.042262 24.108792 16.063677 24 16.0625 C 24.000165 16.041384 24 16.021154 24 16 C 24 15.57379 23.971634 15.157831 23.90625 14.75 C 24.023813 14.65961 24.141433 14.575718 24.28125 14.46875 C 24.45225 14.34575 24.589 14.164 24.75 14 C 24.91 13.837 25.0475 13.61225 25.1875 13.40625 C 25.4505 12.96325 25.6075 12.458 25.6875 12 C 25.7695 11.539 25.80125 11.11 25.90625 10.75 C 25.96925 10.579 26.032 10.42525 26.125 10.28125 C 26.198 10.12025 26.31325 10.003 26.40625 9.875 C 26.62425 9.652 26.836 9.473 27 9.375 C 27.16 9.267 27.25 9.1875 27.25 9.1875 C 27.258 9.2085 26.82475 9.273 26.21875 9.625 C 26.08075 9.73 25.888 9.81275 25.75 9.96875 C 25.592 10.10875 25.47975 10.311 25.34375 10.5 C 25.09775 10.886 24.90575 11.3145 24.71875 11.6875 C 24.53275 12.0645 24.32975 12.37875 24.09375 12.59375 C 23.96075 12.69275 23.85575 12.77375 23.71875 12.84375 C 23.593209 12.907916 23.517746 12.993413 23.40625 13.03125 C 23.254338 12.656742 23.078726 12.281866 22.875 11.9375 L 21.40625 13.40625 C 21.78125 14.18925 22 15.075 22 16 C 22 19.325562 19.325562 22 16 22 C 12.674438 22 10 19.325562 10 16 C 10 12.674438 12.674438 10 16 10 C 16.925 10 17.81075 10.21875 18.59375 10.59375 L 19.34375 9.8125 L 20.03125 9.125 C 20.039201 9.1296673 20.054567 9.1203067 20.0625 9.125 L 20.6875 8.46875 C 20.6855 8.41975 20.6885 8.39375 20.6875 8.34375 C 20.6835 8.11575 20.6125 7.869 20.5625 7.625 C 20.4295 7.127 20.17825 6.65825 19.90625 6.28125 C 19.63425 5.90025 19.3715 5.578 19.1875 5.25 C 19.1085 5.085 19.00675 4.917 18.96875 4.75 C 18.90475 4.586 18.902 4.43625 18.875 4.28125 C 18.867 3.96925 18.8925 3.685 18.9375 3.5 C 18.9705 3.309 19 3.1875 19 3.1875 C 19.02 3.1965 18.7345 3.57 18.5625 4.25 C 18.5415 4.422 18.485 4.6055 18.5 4.8125 C 18.49 5.0235 18.55275 5.23975 18.59375 5.46875 C 18.69675 5.91375 18.89525 6.355 19.03125 6.75 C 19.17025 7.146 19.22975 7.4935 19.21875 7.8125 C 19.19675 7.9765 19.20225 8.13425 19.15625 8.28125 C 19.114625 8.41445 19.081282 8.5192228 19.03125 8.625 C 18.650809 8.4669032 18.250891 8.3171541 17.84375 8.21875 C 17.805526 8.0772437 17.764452 7.917851 17.71875 7.75 C 17.67075 7.546 17.55875 7.36825 17.46875 7.15625 C 17.37975 6.94725 17.23075 6.707 17.09375 6.5 C 16.78475 6.087 16.393 5.78025 16 5.53125 C 15.605 5.27925 15.2305 5.07875 14.9375 4.84375 C 14.8025 4.72075 14.6605 4.60975 14.5625 4.46875 C 14.4415 4.33975 14.3955 4.16625 14.3125 4.03125 C 14.1885 3.74525 14.0905 3.5015 14.0625 3.3125 C 14.0235 3.1225 14 3 14 3 z M 28 4 L 24 5 L 24 6.5625 L 20.5 10.0625 L 20.40625 10.1875 L 18.28125 12.28125 L 19.71875 13.71875 L 25.4375 8 L 27 8 L 28 4 z" fill="#fff"/>
</svg>
